<mxfile host="app.diagrams.net" modified="2023-10-16T14:09:37.720Z" agent="Mozilla/5.0 (Windows NT 10.0; Win64; x64; rv:109.0) Gecko/20100101 Firefox/119.0" version="22.0.4" etag="ATl1PHXbpZ3TlIpSz8G1" type="github">
  <diagram name="PÃ¡gina-1" id="hq1q3rJijpY_PoKoH1_M">
    <mxGraphModel>
      <root>
        <mxCell id="0" />
        <mxCell id="1" parent="0" />
      </root>
    </mxGraphModel>
  </diagram>
</mxfile>
